# xmcd
#
# Track frame offsets: 
#        150
#        30962
#        61662
#        89425
#        130752
#        156180
#        187112
#        211687
#
# Disc length: 3163 seconds
#
# Revision: 5
# Processed by: cddbd v1.5.2PL0 Copyright (c) Steve Scherf et al.
# Submitted via: ExactAudioCopyFreeDBPlugin 1.0
#
DISCID=5e0c5908
DTITLE=Eric Clapton - 24 Nights [CD1]
DYEAR=1991
DGENRE=Rock
TTITLE0=Badge
TTITLE1=Running On Faith
TTITLE2=White Room
TTITLE3=Sunshine Of Your Love
TTITLE4=Watch Yourself
TTITLE5=Have You Ever Loved A Woman
TTITLE6=Worried Life Blues
TTITLE7=Hoodoo Man
EXTD=Recorded live at The Royal Albert Hall, London.\n1990 and 1991\n\nP
EXTD=roduced by Russ Titelman\n
EXTT0=
EXTT1=
EXTT2=
EXTT3=
EXTT4=
EXTT5=
EXTT6=
EXTT7=
PLAYORDER=
